<svg version="1.2" xmlns="http://www.w3.org/2000/svg" viewBox="0 0 24 24" width="17" height="17">
	<title>call_black_24dp-svg</title>
	<style>
		.s0 { fill: none } 
		.s1 { fill: #0099ff } 
	</style>
	<path id="Layer" class="s0" d="m0 0h24v24h-24z"/>
	<path id="Layer" class="s1" d="m21 16.4v3.4c0 0.6-0.3 1.2-1 1.2-9.3 0-17-7.7-17-17 0-0.8 0.6-1 1.2-1h3.5c0.5 0 0.9 0.5 0.9 1q0 1.8 0.6 3.5c0.1 0.4 0 0.8-0.2 1l-2 1.7c1.4 2.9 4.1 5.5 6.9 6.8l1.6-1.9c0.2-0.3 0.6-0.4 1-0.3q1.7 0.6 3.5 0.6c0.6 0 1 0.4 1 1z"/>
</svg>