<svg version="1.2" xmlns="http://www.w3.org/2000/svg" viewBox="0 0 24 24" width="300" height="300">
	<title>directions_bike_black_24dp-svg</title>
	<style>
		.s0 { fill: none } 
		.s1 { fill: #ffb700 } 
	</style>
	<path id="Layer" class="s0" d="m0 0h24v24h-24z"/>
	<path id="Layer" fill-rule="evenodd" class="s1" d="m13.5 3.5c0-1.1 0.9-2 2-2 1.1 0 2 0.9 2 2 0 1.1-0.9 2-2 2-1.1 0-2-0.9-2-2zm-3.5 13.5c0 2.8-2.2 5-5 5-2.8 0-5-2.2-5-5 0-2.8 2.2-5 5-5 2.8 0 5 2.2 5 5zm-1.5 0c0-1.9-1.6-3.5-3.5-3.5-1.9 0-3.5 1.6-3.5 3.5 0 1.9 1.6 3.5 3.5 3.5 1.9 0 3.5-1.6 3.5-3.5zm4.5-4.2v6.2h-2v-5l-3.2-2.8c-0.4-0.3-0.6-0.8-0.6-1.4 0-0.5 0.2-1 0.6-1.4l2.8-2.8c0.3-0.4 0.8-0.6 1.4-0.6 0.6 0 1.1 0.2 1.6 0.6l1.9 1.9c0.9 0.9 2.1 1.5 3.6 1.5v2c-2.1 0-3.8-0.8-5.1-2.1l-0.8-0.8-2.4 2.4zm11 4.2c0 2.8-2.2 5-5 5-2.8 0-5-2.2-5-5 0-2.8 2.2-5 5-5 2.8 0 5 2.2 5 5zm-1.5 0c0-1.9-1.6-3.5-3.5-3.5-1.9 0-3.5 1.6-3.5 3.5 0 1.9 1.6 3.5 3.5 3.5 1.9 0 3.5-1.6 3.5-3.5z"/>
</svg>