<svg version="1.2" xmlns="http://www.w3.org/2000/svg" width="24" height="24"><path d="M0 0h24v24H0z" style="fill:none"/><path fill-rule="evenodd" d="M13.5 3.5c0-1.1.9-2 2-2s2 .9 2 2-.9 2-2 2-2-.9-2-2zM10 17c0 2.8-2.2 5-5 5s-5-2.2-5-5 2.2-5 5-5 5 2.2 5 5zm-1.5 0c0-1.9-1.6-3.5-3.5-3.5S1.5 15.1 1.5 17s1.6 3.5 3.5 3.5 3.5-1.6 3.5-3.5zm4.5-4.2V19h-2v-5l-3.2-2.8c-.4-.3-.6-.8-.6-1.4 0-.5.2-1 .6-1.4l2.8-2.8c.3-.4.8-.6 1.4-.6.6 0 1.1.2 1.6.6l1.9 1.9c.9.9 2.1 1.5 3.6 1.5v2c-2.1 0-3.8-.8-5.1-2.1l-.8-.8-2.4 2.4zM24 17c0 2.8-2.2 5-5 5s-5-2.2-5-5 2.2-5 5-5 5 2.2 5 5zm-1.5 0c0-1.9-1.6-3.5-3.5-3.5s-3.5 1.6-3.5 3.5 1.6 3.5 3.5 3.5 3.5-1.6 3.5-3.5z" style="fill:#ffb700"/></svg>